# xmcd
#
# Track frame offsets: 
#        150
#        19538
#        31939
#        47217
#        61413
#        72787
#        82215
#        98365
#        119048
#        129517
#        148668
#        161578
#
# Disc length: 2312 seconds
#
# Revision: 0
# Processed by: cddbd v1.5.2PL0 Copyright (c) Steve Scherf et al.
# Submitted via: ExactAudioCopy v0.99pb5
#
DISCID=a209060c
DTITLE=Various Artist - Best Of Country Hits Vol. 3
DYEAR=2010
DGENRE=Country
TTITLE0=Kenny Rogers - She Beleives In Me
TTITLE1=Lynn Anderson - Stand By Your Man
TTITLE2=Bill Phillips - Coca Cola Cowboy
TTITLE3=Tommy Cash - All Around Cowboy
TTITLE4=Skeeter Davis - Crying Time
TTITLE5=Jack Greene - Are You Sincere
TTITLE6=Lynn Anderson - Devil Went Down To Georgia
TTITLE7=Tommy Overstreet - September Song
TTITLE8=Lynn Anderson - I've Been Everywhere
TTITLE9=Nat Stuckey - I Beleive In You
TTITLE10=Faron Young - I'd Be A Legend In My Time
TTITLE11=Patsy Cline - Today Tomorrow And Forever
EXTD=
EXTT0=
EXTT1=
EXTT2=
EXTT3=
EXTT4=
EXTT5=
EXTT6=
EXTT7=
EXTT8=
EXTT9=
EXTT10=
EXTT11=
PLAYORDER=
